<svg xmlns="http://www.w3.org/2000/svg" viewBox="0 0 35 41.1"><g id="Layer_2" data-name="Layer 2"><g id="Flat"><path d="M35,0H0V10.24L3.83,39.73a1.31,1.31,0,0,1-.13.17l.17.13L4,41H5.16l.14.1.08-.1H29.62l.08.1.13-.1H31l.13-1,.17-.13a1.31,1.31,0,0,1-.13-.17L35,10.5ZM7.49,39a16.06,16.06,0,0,1,20,0ZM33,10.37,29.39,37.93a18.16,18.16,0,0,0-23.77,0L2,10.11V2H33Z" style="fill:#fff"/><rect x="5.5" y="8.5" width="24" height="2" style="fill:#fff"/><rect x="5.5" y="4.5" width="24" height="2" style="fill:#fff"/></g></g></svg>