<svg xmlns="http://www.w3.org/2000/svg" viewBox="0 0 33.21 42.18"><g id="Layer_2" data-name="Layer 2"><g id="Flat"><path d="M31.84,24.57l-1.15-2.75a11.62,11.62,0,0,1-.4-7.78h0A4.69,4.69,0,0,0,25.8,8H21.1V7h2V3a3,3,0,0,0-3-3h-6a3,3,0,0,0-3,3V7h2V8H7.41a4.69,4.69,0,0,0-4.49,6h0a11.62,11.62,0,0,1-.41,7.78L1.37,24.57A17.74,17.74,0,0,0,.53,35.71L2.1,42h1l.19.18L3.51,42H28.72l.08.1.14-.1H31.1l1.58-6.29A17.81,17.81,0,0,0,31.84,24.57ZM13.1,3a1,1,0,0,1,1-1h6a1,1,0,0,1,1,1V5h-8Zm2,4h4V8h-4ZM6,40A18.82,18.82,0,0,1,16.6,36.5a16.08,16.08,0,0,1,10,3.5Zm24.78-4.78-1.18,4.72a18,18,0,0,0-13-5.44A21.05,21.05,0,0,0,3.5,39.33l-1-4.11a15.87,15.87,0,0,1,.74-9.88l1.15-2.75a13.64,13.64,0,0,0,.47-9.13A2.69,2.69,0,0,1,7.41,10H25.8a2.69,2.69,0,0,1,2.58,3.46,13.64,13.64,0,0,0,.47,9.13L30,25.34A15.94,15.94,0,0,1,30.74,35.22Z" style="fill:#fff"/></g></g></svg>