<svg xmlns="http://www.w3.org/2000/svg" viewBox="0 0 66.48 67.38">
    <defs>
        <linearGradient id="preloader-gradient" gradientTransform="rotate(90)">
            <stop offset="0%"  stop-color="rgba(136,197,84,0.1)" />
            <stop offset="100%" stop-color="rgba(0,182,228,0.1)" />
        </linearGradient>
    </defs>
    <style>
        .preloader__circle {
            transform-origin: 50% 50%;
            fill: #fff;
            animation: preloader-dash 2.5s infinite,
                       preloader-rotate 2.55s infinite,
                       preloader-strokechanger 7s infinite;
        }
        .preloader__shapes > * {
            opacity: 0;
            transform-origin: 50% 50%;
            animation: preloader-shapefader 13.5s infinite, 
                       preloader-colorchanger 7s infinite;
        }
        .preloader__shape1 {
            animation-delay: 0s, 0s;
        }
        .preloader__shape2 {
            animation-delay: 1.5s, 0s;
        }
        .preloader__shape3 {
            animation-delay: 3s, 0s;
        }
        .preloader__shape4 {
            animation-delay: 4.5s, 0s;
        }
        .preloader__shape5 {
            animation-delay: 6s, 0s;
        }
        .preloader__shape6 {
            animation-delay: 7.5s, 0s;
        }
        .preloader__shape7 {
            animation-delay: 9s, 0s;
        }
        .preloader__shape8 {
            animation-delay: 10.5s, 0s;
        }
        .preloader__shape9 {
            animation-delay: 12s, 0s;
        }
        @keyframes preloader-shapefader {
            0% {
                transform: scale(0.4);
                opacity:0;
            }
            11.1111% {
                transform: scale(1);
                opacity:1;
            }
            11.55555% {
                opacity: 1;
            }
            15% {
                transform: scale(1.1);
                opacity: 0;
            }
            100% {
                opacity: 0;
            }
        }
        @-webkit-keyframes preloader-rotate {
            100% {
                -webkit-transform: rotate(360deg);
                        transform: rotate(360deg);
            }
        }
        @keyframes preloader-colorchanger {
            0% {
                fill: rgba(0,182,228);
            }
            50% {
                fill: rgba(136,197,84);
            }
            100% {
                fill: rgba(0,182,228);
            }
        }
        @keyframes preloader-strokechanger {
            0% {
                stroke: rgba(136,197,84);
            }
            50% {
                stroke: rgba(0,182,228);
            }
            100% {
                stroke: rgba(136,197,84);
            }
        }
        @keyframes preloader-dash {
            0% {
                stroke-dasharray: 1, 232.5;
                stroke-dashoffset: 0;
            }
            50% {
                stroke-dasharray: 139.5, 232.5;
                stroke-dashoffset: -54.25;
            }
            100% {
                stroke-dasharray: 139.5, 232.5;
                stroke-dashoffset: -192;
            }
        }

    </style>
    <g class="preloader__circle">
        <ellipse class="preloader__circle-2" data-name="circle" cx="33.24" cy="33.69" rx="31" ry="31" style="stroke-miterlimit:10;stroke-width:2.2px" fill="url('#preloader-gradient')" />
    </g>
    <g class="preloader__shapes">
        <g class="preloader__shape9">
            <path class="preloader__shape9-2" data-name="shape9" d="M50.74,13.19h-36v40a1,1,0,0,0,1,1h35a1,1,0,0,0,1-1v-40Zm-34,2h33v2h-33Zm33,37h-33v-31h33Z"/>
        </g>
        <g class="preloader__shape8">
            <g class="preloader__shape8-2" data-name="shape8">
                <path d="M50.74,13.14h-35V23.38l3.83,29.49-.13.17.17.13.13,1H20.9l.14.1.08-.1H45.36l.08.1.13-.1h1.17l.13-1L47,53a1.31,1.31,0,0,1-.13-.17l3.83-29.23Zm-27.51,39a16.06,16.06,0,0,1,20,0ZM48.74,23.51,45.13,51.07a18.16,18.16,0,0,0-23.77,0L17.74,23.25V15.14h31Z"/>
                <rect x="21.24" y="21.64" width="24" height="2"/>
                <rect x="21.24" y="17.64" width="24" height="2"/>
            </g>
        </g>
        <g class="preloader__shape7">
            <path class="preloader__shape7-2" data-name="shape7" d="M48.48,37.17l-1.15-2.75a11.56,11.56,0,0,1-.4-7.78h0a4.69,4.69,0,0,0-4.49-6h-4.7v-1h2v-4a3,3,0,0,0-3-3h-6a3,3,0,0,0-3,3v4h2v1H24a4.69,4.69,0,0,0-4.49,6h0a11.56,11.56,0,0,1-.4,7.78L18,37.17a17.73,17.73,0,0,0-.83,11.14l1.57,6.29h1.05l.19.18.17-.18H45.36l.08.1.13-.1h2.17l1.57-6.29A17.73,17.73,0,0,0,48.48,37.17ZM29.74,15.6a1,1,0,0,1,1-1h6a1,1,0,0,1,1,1v2h-8Zm2,4h4v1h-4Zm-9.14,33a18.79,18.79,0,0,1,10.64-3.5,16,16,0,0,1,10,3.5Zm24.77-4.78-1.18,4.72A18,18,0,0,0,33.24,47.1a21.11,21.11,0,0,0-13.11,4.84l-1-4.12a15.79,15.79,0,0,1,.74-9.88L21,35.19a13.56,13.56,0,0,0,.48-9.12A2.7,2.7,0,0,1,24,22.6h18.4a2.66,2.66,0,0,1,2.15,1.09A2.63,2.63,0,0,1,45,26.07a13.62,13.62,0,0,0,.47,9.12l1.15,2.75A15.79,15.79,0,0,1,47.37,47.82Z"/>
        </g>
        <g class="preloader__shape6">
            <g class="preloader__shape6-2" data-name="shape6">
                <path d="M45.74,13.19h-25a6,6,0,0,0-6,6v29a6,6,0,0,0,6,6h25a6,6,0,0,0,6-6v-29A6,6,0,0,0,45.74,13.19Zm4,35a4,4,0,0,1-4,4h-25a4,4,0,0,1-4-4v-29a4,4,0,0,1,4-4h25a4,4,0,0,1,4,4Z"/>
                <path d="M36.74,21.19H35.67a2.08,2.08,0,0,0,.07-.5,2,2,0,0,0-4,0,2.08,2.08,0,0,0,.07.5H30.74a1,1,0,0,0-1,1v1h8v-1A1,1,0,0,0,36.74,21.19Z"/>
            </g>
        </g>
        <g class="preloader__shape5">
            <g class="preloader__shape5-2" data-name="shape5">
                <path d="M49.79,32.72l-3-9.53v-7a3,3,0,0,0-3-3h-21a3,3,0,0,0-3,3v7L16.66,33a20,20,0,0,0-.92,6V54.19h35V38.81A20,20,0,0,0,49.79,32.72Zm-1,19.47h-31V39a18.25,18.25,0,0,1,.82-5.39l3.09-9.83.09-.29V16.19a1,1,0,0,1,1-1h21a1,1,0,0,1,1,1V23.5l.09.3,3.05,9.53a17.88,17.88,0,0,1,.86,5.48Z"/>
                <rect x="24.74" y="21.19" width="18" height="2"/>
            </g>
        </g>
        <g class="preloader__shape4">
            <path class="preloader__shape4-2" data-name="shape4" d="M49.74,23.19h-8v-4a6,6,0,0,0-6-6h-5a6,6,0,0,0-6,6v4h-8l-1,31h35Zm-23-4a4,4,0,0,1,4-4h5a4,4,0,0,1,4,4v4h-13Zm-8.93,33,.87-27H47.8l.87,27Z"/>
        </g>
        <g class="preloader__shape3">
            <path class="preloader__shape3-2" data-name="shape3" d="M45.57,23.52,48,21.14a3,3,0,0,0,0-4.24l-1.42-1.42a3.08,3.08,0,0,0-4.24,0l-2.38,2.38-4.67-4.67h-19v41h34v-26ZM43.71,16.9a1,1,0,0,1,1.41,0l1.41,1.41a1,1,0,0,1,0,1.42l-2,2L41.7,18.9ZM18.24,52.19v-37h2v37Zm4,0v-37H34.41L44.24,25V52.19Zm26,0h-2V27l2,2Z"/>
        </g>
        <g class="preloader__shape2">
            <g class="preloader__shape2-2" data-name="shape2">
                <path d="M49.74,13.19h-33a2,2,0,0,0-2,2v35a4,4,0,0,0,4,4h29a4,4,0,0,0,4-4v-35A2,2,0,0,0,49.74,13.19Zm0,37a2,2,0,0,1-2,2h-29a2,2,0,0,1-2-2v-35h33Z"/>
                <path d="M27.74,26.19h12a3,3,0,0,0,0-6h-12a3,3,0,0,0,0,6Zm0-4h12a1,1,0,0,1,0,2h-12a1,1,0,0,1,0-2Z"/>
            </g>
        </g>
        <g class="preloader__shape1">
            <path class="preloader__shape1-2" data-name="shape1" d="M49.74,19.19h-1v-3a1,1,0,0,0-1-1h-16v-2h-10v2h-3a1,1,0,0,0-1,1v3h-1a2,2,0,0,0-2,2v31a2,2,0,0,0,2,2h33a2,2,0,0,0,2-2v-31A2,2,0,0,0,49.74,19.19Zm-3-1.5v1h-15v-1Zm-17-2.5v2h-6v-2Zm-10,2.5h2v1h-2Zm30,34.5h-33v-31h33Z"/>
        </g>
    </g>
</svg>
