<svg xmlns="http://www.w3.org/2000/svg" viewBox="0 0 82 82"><defs><style>.cls-1{fill:none;stroke:#000;stroke-miterlimit:10;stroke-width:2px;}</style></defs><g id="circle"><circle id="circle-2" data-name="circle" class="cls-1" cx="41" cy="41" r="40"/></g><g id="shape9"><path id="shape9-2" data-name="shape9" d="M58.5,20.5h-36v40a1,1,0,0,0,1,1h35a1,1,0,0,0,1-1v-40Zm-34,2h33v2h-33Zm33,37h-33v-31h33Z"/></g><g id="shape8"><g id="shape8-2" data-name="shape8"><path d="M58.5,20.45h-35V30.69l3.83,29.49-.13.17.17.13.13,1h1.16l.14.1.08-.1H53.12l.08.1.13-.1H54.5l.13-1,.17-.13a1.31,1.31,0,0,1-.13-.17L58.5,31ZM31,59.45a16.06,16.06,0,0,1,20,0ZM56.5,30.82,52.89,58.38a18.16,18.16,0,0,0-23.77,0L25.5,30.56V22.45h31Z"/><rect x="29" y="28.95" width="24" height="2"/><rect x="29" y="24.95" width="24" height="2"/></g></g><g id="shape7"><path id="shape7-2" data-name="shape7" d="M56.24,44.48l-1.15-2.75a11.56,11.56,0,0,1-.4-7.78h0a4.69,4.69,0,0,0-4.49-6H45.5v-1h2v-4a3,3,0,0,0-3-3h-6a3,3,0,0,0-3,3v4h2v1H31.8a4.69,4.69,0,0,0-4.49,6h0a11.56,11.56,0,0,1-.4,7.78l-1.15,2.75a17.73,17.73,0,0,0-.83,11.14l1.57,6.29h1.05l.19.18a1.57,1.57,0,0,1,.17-.18H53.12l.08.1.13-.1H55.5l1.57-6.29A17.73,17.73,0,0,0,56.24,44.48ZM37.5,22.91a1,1,0,0,1,1-1h6a1,1,0,0,1,1,1v2h-8Zm2,4h4v1h-4Zm-9.14,33A18.79,18.79,0,0,1,41,56.41a16,16,0,0,1,10,3.5Zm24.77-4.78L54,59.85a18,18,0,0,0-13-5.44,21,21,0,0,0-13.1,4.84l-1-4.12a15.79,15.79,0,0,1,.74-9.88l1.15-2.75a13.62,13.62,0,0,0,.47-9.12,2.7,2.7,0,0,1,2.57-3.47H50.2a2.7,2.7,0,0,1,2.57,3.47,13.62,13.62,0,0,0,.47,9.12l1.15,2.75A15.79,15.79,0,0,1,55.13,55.13Z"/></g><g id="shape6"><g id="shape6-2" data-name="shape6"><path d="M53.5,20.5h-25a6,6,0,0,0-6,6v29a6,6,0,0,0,6,6h25a6,6,0,0,0,6-6v-29A6,6,0,0,0,53.5,20.5Zm4,35a4,4,0,0,1-4,4h-25a4,4,0,0,1-4-4v-29a4,4,0,0,1,4-4h25a4,4,0,0,1,4,4Z"/><path d="M44.5,28.5H43.43a2.08,2.08,0,0,0,.07-.5,2,2,0,0,0-4,0,2.08,2.08,0,0,0,.07.5H38.5a1,1,0,0,0-1,1v1h8v-1A1,1,0,0,0,44.5,28.5Z"/></g></g><g id="shape5"><g id="shape5-2" data-name="shape5"><path d="M57.55,40l-3-9.53v-7a3,3,0,0,0-3-3h-21a3,3,0,0,0-3,3v7l-3.08,9.83a20,20,0,0,0-.92,6V61.5h35V46.12A20,20,0,0,0,57.55,40Zm-1,19.47h-31V46.32a18.25,18.25,0,0,1,.82-5.39l3.09-9.83.09-.29V23.5a1,1,0,0,1,1-1h21a1,1,0,0,1,1,1v7.31l.1.3,3,9.53a17.88,17.88,0,0,1,.86,5.48Z"/><rect x="32.5" y="28.5" width="18" height="2"/></g></g><g id="shape4"><path id="shape4-2" data-name="shape4" d="M57.5,30.5h-8v-4a6,6,0,0,0-6-6h-5a6,6,0,0,0-6,6v4h-8l-1,31h35Zm-23-4a4,4,0,0,1,4-4h5a4,4,0,0,1,4,4v4h-13Zm-8.93,33,.87-27H55.56l.87,27Z"/></g><g id="shape3"><path id="shape3-2" data-name="shape3" d="M53.33,30.83l2.38-2.38a3,3,0,0,0,0-4.24l-1.42-1.42a3.08,3.08,0,0,0-4.24,0l-2.38,2.38L43,20.5H24v41H58v-26Zm-1.86-6.62a1,1,0,0,1,1.41,0l1.41,1.41a1,1,0,0,1,0,1.42l-2,2-2.83-2.83ZM26,59.5v-37h2v37Zm4,0v-37H42.17L52,32.33V59.5Zm26,0H54V34.33l2,2Z"/></g><g id="shape2"><g id="shape2-2" data-name="shape2"><path d="M57.5,20.5h-33a2,2,0,0,0-2,2v35a4,4,0,0,0,4,4h29a4,4,0,0,0,4-4v-35A2,2,0,0,0,57.5,20.5Zm0,37a2,2,0,0,1-2,2h-29a2,2,0,0,1-2-2v-35h33Z"/><path d="M35.5,33.5h12a3,3,0,0,0,0-6h-12a3,3,0,0,0,0,6Zm0-4h12a1,1,0,0,1,0,2h-12a1,1,0,0,1,0-2Z"/></g></g><g id="shape1"><path id="shape1-2" data-name="shape1" d="M57.5,26.5h-1v-3a1,1,0,0,0-1-1h-16v-2h-10v2h-3a1,1,0,0,0-1,1v3h-1a2,2,0,0,0-2,2v31a2,2,0,0,0,2,2h33a2,2,0,0,0,2-2v-31A2,2,0,0,0,57.5,26.5Zm-3-1.5v1h-15V25Zm-17-2.5v2h-6v-2ZM27.5,25h2v1h-2Zm30,34.5h-33v-31h33Z"/></g></svg>