<svg xmlns="http://www.w3.org/2000/svg" viewBox="0 0 77 77"><defs><style>.cls-1{fill:none;stroke:#000;stroke-miterlimit:10;stroke-width:2px;}</style></defs><g id="circle"><circle id="circle-2" data-name="circle" class="cls-1" cx="38.5" cy="38.5" r="37.5"/></g><g id="shape9"><path id="shape9-2" data-name="shape9" d="M56,18H20V58a1,1,0,0,0,1,1H56a1,1,0,0,0,1-1V18ZM22,20H55v2H22ZM55,57H22V26H55Z"/></g><g id="shape8"><g id="shape8-2" data-name="shape8"><path d="M56,18H21V28.19l3.83,29.49-.13.17.17.13L25,59h1.16l.14.1.08-.1H50.62l.08.1.13-.1H52l.13-1,.17-.13a1.31,1.31,0,0,1-.13-.17L56,28.45ZM28.49,57a16.06,16.06,0,0,1,20,0ZM54,28.32,50.39,55.88a18.16,18.16,0,0,0-23.77,0L23,28.06V20H54Z"/><rect x="26.5" y="26.45" width="24" height="2"/><rect x="26.5" y="22.45" width="24" height="2"/></g></g><g id="shape7"><path id="shape7-2" data-name="shape7" d="M53.74,42l-1.15-2.75a11.56,11.56,0,0,1-.4-7.78h0a4.69,4.69,0,0,0-4.49-6H43v-1h2v-4a3,3,0,0,0-3-3H36a3,3,0,0,0-3,3v4h2v1H29.3a4.69,4.69,0,0,0-4.49,6h0a11.56,11.56,0,0,1-.4,7.78L23.26,42a17.73,17.73,0,0,0-.83,11.14L24,59.41h1.05l.19.18a1.57,1.57,0,0,1,.17-.18H50.62l.08.1.13-.1H53l1.57-6.29A17.73,17.73,0,0,0,53.74,42ZM35,20.41a1,1,0,0,1,1-1h6a1,1,0,0,1,1,1v2H35Zm2,4h4v1H37Zm-9.14,33a18.79,18.79,0,0,1,10.64-3.5,16,16,0,0,1,10,3.5Zm24.77-4.78-1.18,4.72a18,18,0,0,0-13-5.44,21,21,0,0,0-13.1,4.84l-1-4.12a15.79,15.79,0,0,1,.74-9.88L26.26,40a13.62,13.62,0,0,0,.47-9.12,2.7,2.7,0,0,1,2.57-3.47H47.7a2.7,2.7,0,0,1,2.57,3.47A13.62,13.62,0,0,0,50.74,40l1.15,2.75A15.79,15.79,0,0,1,52.63,52.63Z"/></g><g id="shape6"><g id="shape6-2" data-name="shape6"><path d="M51,18H26a6,6,0,0,0-6,6V53a6,6,0,0,0,6,6H51a6,6,0,0,0,6-6V24A6,6,0,0,0,51,18Zm4,35a4,4,0,0,1-4,4H26a4,4,0,0,1-4-4V24a4,4,0,0,1,4-4H51a4,4,0,0,1,4,4Z"/><path d="M42,26H40.93a2.08,2.08,0,0,0,.07-.5,2,2,0,0,0-4,0,2.08,2.08,0,0,0,.07.5H36a1,1,0,0,0-1,1v1h8V27A1,1,0,0,0,42,26Z"/></g></g><g id="shape5"><g id="shape5-2" data-name="shape5"><path d="M55.05,37.53,52,28V21a3,3,0,0,0-3-3H28a3,3,0,0,0-3,3v7l-3.08,9.83a20,20,0,0,0-.92,6V59H56V43.62A20,20,0,0,0,55.05,37.53ZM54,57H23V43.82a18.25,18.25,0,0,1,.82-5.39l3.09-9.83.09-.29V21a1,1,0,0,1,1-1H49a1,1,0,0,1,1,1v7.31l.1.3,3,9.53A17.88,17.88,0,0,1,54,43.62Z"/><rect x="30" y="26" width="18" height="2"/></g></g><g id="shape4"><path id="shape4-2" data-name="shape4" d="M55,28H47V24a6,6,0,0,0-6-6H36a6,6,0,0,0-6,6v4H22L21,59H56ZM32,24a4,4,0,0,1,4-4h5a4,4,0,0,1,4,4v4H32ZM23.07,57l.87-27H53.06l.87,27Z"/></g><g id="shape3"><path id="shape3-2" data-name="shape3" d="M50.83,28.33,53.21,26a3,3,0,0,0,0-4.24l-1.42-1.42a3.08,3.08,0,0,0-4.24,0l-2.38,2.38L40.5,18h-19V59h34V33ZM49,21.71a1,1,0,0,1,1.41,0l1.41,1.41a1,1,0,0,1,0,1.42l-2,2L47,23.71ZM23.5,57V20h2V57Zm4,0V20H39.67l9.83,9.83V57Zm26,0h-2V31.83l2,2Z"/></g><g id="shape2"><g id="shape2-2" data-name="shape2"><path d="M55,18H22a2,2,0,0,0-2,2V55a4,4,0,0,0,4,4H53a4,4,0,0,0,4-4V20A2,2,0,0,0,55,18Zm0,37a2,2,0,0,1-2,2H24a2,2,0,0,1-2-2V20H55Z"/><path d="M33,31H45a3,3,0,0,0,0-6H33a3,3,0,0,0,0,6Zm0-4H45a1,1,0,0,1,0,2H33a1,1,0,0,1,0-2Z"/></g></g><g id="shape1"><path id="shape1-2" data-name="shape1" d="M55,24H54V21a1,1,0,0,0-1-1H37V18H27v2H24a1,1,0,0,0-1,1v3H22a2,2,0,0,0-2,2V57a2,2,0,0,0,2,2H55a2,2,0,0,0,2-2V26A2,2,0,0,0,55,24Zm-3-1.5v1H37v-1ZM35,20v2H29V20ZM25,22.5h2v1H25ZM55,57H22V26H55Z"/></g></svg>