<svg xmlns="http://www.w3.org/2000/svg" viewBox="0 0 74 74">
    <style>
    #shapes > * {
        opacity: 0;
    }
    #shapes > *:first-child {
        opacity: 1;
    }
    </style>
    <g id="circle">
        <path id="circle-2" data-name="circle"
            d="M37,74A37,37,0,1,1,74,37,37,37,0,0,1,37,74ZM37,3A34,34,0,1,0,71,37,34,34,0,0,0,37,3Z" />
    </g>
    <g id="shapes">
        <g id="shape9">
            <path id="shape9-2" data-name="shape9"
                d="M54.5,16.5h-36v40a1,1,0,0,0,1,1h35a1,1,0,0,0,1-1v-40Zm-34,2h33v2h-33Zm33,37h-33v-31h33Z" />
        </g>
        <g id="shape8">
            <g id="shape8-2" data-name="shape8">
                <path
                    d="M54.5,16.45h-35V26.69l3.83,29.49-.13.17.17.13.13,1h1.16l.14.1.08-.1H49.12l.08.1.13-.1H50.5l.13-1,.17-.13a1.31,1.31,0,0,1-.13-.17L54.5,27ZM27,55.45a16.06,16.06,0,0,1,20,0ZM52.5,26.82,48.89,54.38a18.16,18.16,0,0,0-23.77,0L21.5,26.56V18.45h31Z" />
                <rect x="25" y="24.95" width="24" height="2" />
                <rect x="25" y="20.95" width="24" height="2" />
            </g>
        </g>
        <g id="shape7">
            <path id="shape7-2" data-name="shape7"
                d="M52.24,40.48l-1.15-2.75a11.56,11.56,0,0,1-.4-7.78h0a4.69,4.69,0,0,0-4.49-6H41.5v-1h2v-4a3,3,0,0,0-3-3h-6a3,3,0,0,0-3,3v4h2v1H27.8a4.69,4.69,0,0,0-4.49,6h0a11.56,11.56,0,0,1-.4,7.78l-1.15,2.75a17.73,17.73,0,0,0-.83,11.14l1.57,6.29h1.05l.19.18a1.57,1.57,0,0,1,.17-.18H49.12l.08.1.13-.1H51.5l1.57-6.29A17.73,17.73,0,0,0,52.24,40.48ZM33.5,18.91a1,1,0,0,1,1-1h6a1,1,0,0,1,1,1v2h-8Zm2,4h4v1h-4Zm-9.14,33A18.79,18.79,0,0,1,37,52.41a16,16,0,0,1,10,3.5Zm24.77-4.78L50,55.85a18,18,0,0,0-13-5.44,21,21,0,0,0-13.1,4.84l-1-4.12a15.79,15.79,0,0,1,.74-9.88l1.15-2.75a13.62,13.62,0,0,0,.47-9.12,2.7,2.7,0,0,1,2.57-3.47H46.2a2.7,2.7,0,0,1,2.57,3.47,13.62,13.62,0,0,0,.47,9.12l1.15,2.75A15.79,15.79,0,0,1,51.13,51.13Z" />
        </g>
        <g id="shape6">
            <g id="shape6-2" data-name="shape6">
                <path
                    d="M49.5,16.5h-25a6,6,0,0,0-6,6v29a6,6,0,0,0,6,6h25a6,6,0,0,0,6-6v-29A6,6,0,0,0,49.5,16.5Zm4,35a4,4,0,0,1-4,4h-25a4,4,0,0,1-4-4v-29a4,4,0,0,1,4-4h25a4,4,0,0,1,4,4Z" />
                <path
                    d="M40.5,24.5H39.43a2.08,2.08,0,0,0,.07-.5,2,2,0,0,0-4,0,2.08,2.08,0,0,0,.07.5H34.5a1,1,0,0,0-1,1v1h8v-1A1,1,0,0,0,40.5,24.5Z" />
            </g>
        </g>
        <g id="shape5">
            <g id="shape5-2" data-name="shape5">
                <path
                    d="M53.55,36l-3-9.53v-7a3,3,0,0,0-3-3h-21a3,3,0,0,0-3,3v7l-3.08,9.83a20,20,0,0,0-.92,6V57.5h35V42.12A20,20,0,0,0,53.55,36Zm-1,19.47h-31V42.32a18.25,18.25,0,0,1,.82-5.39l3.09-9.83.09-.29V19.5a1,1,0,0,1,1-1h21a1,1,0,0,1,1,1v7.31l.1.3,3,9.53a17.88,17.88,0,0,1,.86,5.48Z" />
                <rect x="28.5" y="24.5" width="18" height="2" />
            </g>
        </g>
        <g id="shape4">
            <path id="shape4-2" data-name="shape4"
                d="M53.5,26.5h-8v-4a6,6,0,0,0-6-6h-5a6,6,0,0,0-6,6v4h-8l-1,31h35Zm-23-4a4,4,0,0,1,4-4h5a4,4,0,0,1,4,4v4h-13Zm-8.93,33,.87-27H51.56l.87,27Z" />
        </g>
        <g id="shape3">
            <path id="shape3-2" data-name="shape3"
                d="M49.33,26.83l2.38-2.38a3,3,0,0,0,0-4.24l-1.42-1.42a3.08,3.08,0,0,0-4.24,0l-2.38,2.38L39,16.5H20v41H54v-26Zm-1.86-6.62a1,1,0,0,1,1.41,0l1.41,1.41a1,1,0,0,1,0,1.42l-2,2-2.83-2.83ZM22,55.5v-37h2v37Zm4,0v-37H38.17L48,28.33V55.5Zm26,0H50V30.33l2,2Z" />
        </g>
        <g id="shape2">
            <g id="shape2-2" data-name="shape2">
                <path
                    d="M53.5,16.5h-33a2,2,0,0,0-2,2v35a4,4,0,0,0,4,4h29a4,4,0,0,0,4-4v-35A2,2,0,0,0,53.5,16.5Zm0,37a2,2,0,0,1-2,2h-29a2,2,0,0,1-2-2v-35h33Z" />
                <path d="M31.5,29.5h12a3,3,0,0,0,0-6h-12a3,3,0,0,0,0,6Zm0-4h12a1,1,0,0,1,0,2h-12a1,1,0,0,1,0-2Z" />
            </g>
        </g>
        <g id="shape1">
            <path id="shape1-2" data-name="shape1"
                d="M53.5,22.5h-1v-3a1,1,0,0,0-1-1h-16v-2h-10v2h-3a1,1,0,0,0-1,1v3h-1a2,2,0,0,0-2,2v31a2,2,0,0,0,2,2h33a2,2,0,0,0,2-2v-31A2,2,0,0,0,53.5,22.5Zm-3-1.5v1h-15V21Zm-17-2.5v2h-6v-2ZM23.5,21h2v1h-2Zm30,34.5h-33v-31h33Z" />
        </g>
    </g>
    <script>
    document.getElementById('shape8').style.opacity="1";
    </script>
</svg>